<svg xmlns="http://www.w3.org/2000/svg" version="1.1" width="195.7mm" height="109.7mm" viewBox = " 0 0 693.425767 388.701107" >
<!-- Front--> 
<g transform="translate(22.5000185, 22.5000185) " > 
<polygon style="stroke:#000000; fill:none; stroke-width:0.90000074" points="0, 0 27.4606525, 0 27.4606525, 10.62993 54.921305, 10.62993 54.921305, 0 76.181165, 0 76.181165, 10.62993 97.441025, 10.62993 97.441025, 0 118.700885, 0 118.700885, 10.62993 139.960745, 10.62993 139.960745, 0 161.220605, 0 161.220605, 10.62993 188.68125750000002, 10.62993 188.68125750000002, 0 216.14191, 0 216.14191, 26.574825 205.51198, 26.574825 205.51198, 53.14965 216.14191, 53.14965 216.14191, 74.40951 205.51198, 74.40951 205.51198, 100.984335 216.14191, 100.984335 216.14191, 127.55915999999999 188.68125750000002, 127.55915999999999 188.68125750000002, 116.92922999999999 161.220605, 116.92922999999999 161.220605, 127.55915999999999 139.960745, 127.55915999999999 139.960745, 116.92922999999999 118.700885, 116.92922999999999 118.700885, 127.55915999999999 97.441025, 127.55915999999999 97.441025, 116.92922999999999 76.181165, 116.92922999999999 76.181165, 127.55915999999999 54.921305, 127.55915999999999 54.921305, 116.92922999999999 27.4606525, 116.92922999999999 27.4606525, 127.55915999999999 0, 127.55916 0, 100.984335 10.62993, 100.984335 10.62993, 74.40951 0, 74.40951 0, 53.14965 10.62993, 53.14965 10.62993, 26.574825 0, 26.574825 "/> 
</g>
<!-- Back--> 
<g transform="translate(238.64192849999998, 22.5000185) " > 
<polygon style="stroke:#000000; fill:none; stroke-width:0.90000074" points="0, 0 27.4606525, 0 27.4606525, 10.62993 54.921305, 10.62993 54.921305, 0 76.181165, 0 76.181165, 10.62993 97.441025, 10.62993 97.441025, 0 118.700885, 0 118.700885, 10.62993 139.960745, 10.62993 139.960745, 0 161.220605, 0 161.220605, 10.62993 188.68125750000002, 10.62993 188.68125750000002, 0 216.14191, 0 216.14191, 26.574825 205.51198, 26.574825 205.51198, 53.14965 216.14191, 53.14965 216.14191, 74.40951 205.51198, 74.40951 205.51198, 100.984335 216.14191, 100.984335 216.14191, 127.55915999999999 188.68125750000002, 127.55915999999999 188.68125750000002, 116.92922999999999 161.220605, 116.92922999999999 161.220605, 127.55915999999999 139.960745, 127.55915999999999 139.960745, 116.92922999999999 118.700885, 116.92922999999999 118.700885, 127.55915999999999 97.441025, 127.55915999999999 97.441025, 116.92922999999999 76.181165, 116.92922999999999 76.181165, 127.55915999999999 54.921305, 127.55915999999999 54.921305, 116.92922999999999 27.4606525, 116.92922999999999 27.4606525, 127.55915999999999 0, 127.55916 0, 100.984335 10.62993, 100.984335 10.62993, 74.40951 0, 74.40951 0, 53.14965 10.62993, 53.14965 10.62993, 26.574825 0, 26.574825 "/> 
</g>
<!-- Left--> 
<g transform="translate(454.7838385, 22.5000185) " > 
<polygon style="stroke:#000000; fill:none; stroke-width:0.90000074" points="10.62993, 0 27.4606525, 0 27.4606525, 10.62993 54.921305, 10.62993 54.921305, 0 76.181165, 0 76.181165, 10.62993 97.441025, 10.62993 97.441025, 0 118.700885, 0 118.700885, 10.62993 139.960745, 10.62993 139.960745, 0 161.220605, 0 161.220605, 10.62993 188.68125750000002, 10.62993 188.68125750000002, 0 205.51198, 0 205.51198, 26.574825 216.14191, 26.574825 216.14191, 53.14965 205.51198, 53.14965 205.51198, 74.40951 216.14191, 74.40951 216.14191, 100.984335 205.51198, 100.984335 205.51198, 127.55915999999999 188.68125750000002, 127.55915999999999 188.68125750000002, 116.92922999999999 161.220605, 116.92922999999999 161.220605, 127.55915999999999 139.960745, 127.55915999999999 139.960745, 116.92922999999999 118.700885, 116.92922999999999 118.700885, 127.55915999999999 97.441025, 127.55915999999999 97.441025, 116.92922999999999 76.181165, 116.92922999999999 76.181165, 127.55915999999999 54.921305, 127.55915999999999 54.921305, 116.92922999999999 27.4606525, 116.92922999999999 27.4606525, 127.55915999999999 10.62993, 127.55916 10.62993, 100.984335 0, 100.984335 0, 74.40951 10.62993, 74.40951 10.62993, 53.14965 0, 53.14965 0, 26.574825 10.62993, 26.574825 "/> 
</g>
<!-- Right--> 
<g transform="translate(454.7838385, 150.0591785) " > 
<polygon style="stroke:#000000; fill:none; stroke-width:0.90000074" points="10.62993, 0 27.4606525, 0 27.4606525, 10.62993 54.921305, 10.62993 54.921305, 0 76.181165, 0 76.181165, 10.62993 97.441025, 10.62993 97.441025, 0 118.700885, 0 118.700885, 10.62993 139.960745, 10.62993 139.960745, 0 161.220605, 0 161.220605, 10.62993 188.68125750000002, 10.62993 188.68125750000002, 0 205.51198, 0 205.51198, 26.574825 216.14191, 26.574825 216.14191, 53.14965 205.51198, 53.14965 205.51198, 74.40951 216.14191, 74.40951 216.14191, 100.984335 205.51198, 100.984335 205.51198, 127.55915999999999 188.68125750000002, 127.55915999999999 188.68125750000002, 116.92922999999999 161.220605, 116.92922999999999 161.220605, 127.55915999999999 139.960745, 127.55915999999999 139.960745, 116.92922999999999 118.700885, 116.92922999999999 118.700885, 127.55915999999999 97.441025, 127.55915999999999 97.441025, 116.92922999999999 76.181165, 116.92922999999999 76.181165, 127.55915999999999 54.921305, 127.55915999999999 54.921305, 116.92922999999999 27.4606525, 116.92922999999999 27.4606525, 127.55915999999999 10.62993, 127.55916 10.62993, 100.984335 0, 100.984335 0, 74.40951 10.62993, 74.40951 10.62993, 53.14965 0, 53.14965 0, 26.574825 10.62993, 26.574825 "/> 
</g>
<!-- Top--> 
<g transform="translate(22.5000185, 150.0591785) " > 
<polygon style="stroke:#000000; fill:none; stroke-width:0.90000074" points="10.62993, 10.62993 27.4606525, 10.62993 27.4606525, 0 54.921305, 0 54.921305, 10.62993 76.181165, 10.62993 76.181165, 0 97.441025, 0 97.441025, 10.62993 118.700885, 10.62993 118.700885, 0 139.960745, 0 139.960745, 10.62993 161.220605, 10.62993 161.220605, 0 188.68125750000002, 0 188.68125750000002, 10.62993 205.51198, 10.62993 205.51198, 27.4606525 216.14191, 27.4606525 216.14191, 54.921305 205.51198, 54.921305 205.51198, 76.181165 216.14191, 76.181165 216.14191, 97.441025 205.51198, 97.441025 205.51198, 118.700885 216.14191, 118.700885 216.14191, 139.960745 205.51198, 139.960745 205.51198, 161.220605 216.14191, 161.220605 216.14191, 188.68125750000002 205.51198, 188.68125750000002 205.51198, 205.51198 188.68125750000002, 205.51198 188.68125750000002, 216.14191 161.220605, 216.14191 161.220605, 205.51198 139.960745, 205.51198 139.960745, 216.14191 118.700885, 216.14191 118.700885, 205.51198 97.441025, 205.51198 97.441025, 216.14191 76.181165, 216.14191 76.181165, 205.51198 54.921305, 205.51198 54.921305, 216.14191 27.4606525, 216.14191 27.4606525, 205.51198 10.62993, 205.51198 10.62993, 188.68125750000002 0, 188.68125750000002 0, 161.220605 10.62993, 161.220605 10.62993, 139.960745 0, 139.960745 0, 118.700885 10.62993, 118.700885 10.62993, 97.441025 0, 97.441025 0, 76.181165 10.62993, 76.181165 10.62993, 54.921305 0, 54.921305 0, 27.4606525 10.62993, 27.4606525 "/> 
 <circle cx="33.661445" cy="33.661445" r="5.669296" style="stroke:#000000;stroke-width:0.90000074;fill:none" /> 
 <circle cx="33.661445" cy="182.480465" r="5.669296" style="stroke:#000000;stroke-width:0.90000074;fill:none" /> 
 <circle cx="182.480465" cy="33.661445" r="5.669296" style="stroke:#000000;stroke-width:0.90000074;fill:none" /> 
 <circle cx="182.480465" cy="182.480465" r="5.669296" style="stroke:#000000;stroke-width:0.90000074;fill:none" /> 
</g>
<!-- Bottom--> 
<g transform="translate(238.64192849999998, 150.0591785) " > 
<polygon style="stroke:#000000; fill:none; stroke-width:0.90000074" points="10.62993, 10.62993 27.4606525, 10.62993 27.4606525, 0 54.921305, 0 54.921305, 10.62993 76.181165, 10.62993 76.181165, 0 97.441025, 0 97.441025, 10.62993 118.700885, 10.62993 118.700885, 0 139.960745, 0 139.960745, 10.62993 161.220605, 10.62993 161.220605, 0 188.68125750000002, 0 188.68125750000002, 10.62993 205.51198, 10.62993 205.51198, 27.4606525 216.14191, 27.4606525 216.14191, 54.921305 205.51198, 54.921305 205.51198, 76.181165 216.14191, 76.181165 216.14191, 97.441025 205.51198, 97.441025 205.51198, 118.700885 216.14191, 118.700885 216.14191, 139.960745 205.51198, 139.960745 205.51198, 161.220605 216.14191, 161.220605 216.14191, 188.68125750000002 205.51198, 188.68125750000002 205.51198, 205.51198 188.68125750000002, 205.51198 188.68125750000002, 216.14191 161.220605, 216.14191 161.220605, 205.51198 139.960745, 205.51198 139.960745, 216.14191 118.700885, 216.14191 118.700885, 205.51198 97.441025, 205.51198 97.441025, 216.14191 76.181165, 216.14191 76.181165, 205.51198 54.921305, 205.51198 54.921305, 216.14191 27.4606525, 216.14191 27.4606525, 205.51198 10.62993, 205.51198 10.62993, 188.68125750000002 0, 188.68125750000002 0, 161.220605 10.62993, 161.220605 10.62993, 139.960745 0, 139.960745 0, 118.700885 10.62993, 118.700885 10.62993, 97.441025 0, 97.441025 0, 76.181165 10.62993, 76.181165 10.62993, 54.921305 0, 54.921305 0, 27.4606525 10.62993, 27.4606525 "/> 
</g></svg>